<svg width="771" height="643" viewBox="0 0 771 643" fill="none" xmlns="http://www.w3.org/2000/svg">
<path d="M241.684 2.98644C231.417 7.91978 226.351 13.7864 220.751 27.5198C212.084 48.3198 206.884 53.6531 179.951 68.9864C154.751 83.5198 149.151 84.7198 120.884 81.9198C111.017 80.9864 108.217 81.2531 103.017 83.2531C89.1507 88.5864 79.8174 101.92 79.8174 116.586C79.8174 126.32 83.4174 134.72 92.2174 145.386C95.6841 149.386 100.084 156.32 102.084 160.72C105.417 168.053 105.684 170.053 106.217 192.32C107.017 226.453 105.017 234.453 91.6841 251.386C83.0174 262.186 79.8174 269.52 79.8174 278.453C79.8174 289.92 82.2174 295.786 90.4841 303.92C98.7507 312.186 104.484 314.586 116.351 314.586C135.817 314.586 150.617 299.386 150.617 279.52C150.617 268.586 148.751 264.32 138.084 250.186C126.884 235.52 125.151 229.92 124.217 205.92C122.884 173.253 126.084 160.32 139.284 144.186C142.751 140.053 146.751 133.92 148.084 130.586C156.484 110.986 160.084 105.12 167.684 98.8531C176.217 91.7864 202.751 76.0531 212.751 72.0531C222.217 68.4531 231.151 67.7864 244.084 69.7864C257.951 71.7864 263.951 71.3864 271.284 67.9198C282.751 62.3198 290.351 51.3864 291.417 38.7198C292.751 24.5864 286.484 12.4531 274.084 4.71978C265.017 -0.880222 251.284 -1.54689 241.684 2.98644Z" fill="#114378"/>
<path d="M319.817 30.8529C312.351 34.5863 307.017 44.0529 308.351 50.9863C311.151 65.5196 325.551 72.5863 338.751 65.7863C351.551 59.1196 351.284 37.9196 338.484 31.2529C331.684 27.7863 326.217 27.6529 319.817 30.8529Z" fill="#114378"/>
<path d="M322.084 83.2532C308.217 88.3199 299.284 101.787 299.284 117.12C299.284 127.387 301.017 130.987 311.284 144.587C323.417 160.587 326.351 171.12 326.484 198.32C326.484 217.387 324.351 229.653 319.551 238.853C315.551 246.32 315.284 246.587 309.817 246.587C300.884 246.587 290.884 242.987 273.817 233.52C243.284 216.853 236.884 210.32 228.084 186.853C224.217 176.853 219.151 171.12 210.084 166.587C196.084 159.653 180.351 161.787 169.417 172.32C161.551 179.92 159.284 185.653 159.151 199.253C159.151 209.92 161.017 214.587 169.284 224.587C182.617 240.72 185.151 249.12 185.151 278.853C185.151 308.853 182.351 318.853 170.351 332.72C154.217 351.387 154.484 372.987 171.151 387.653C178.484 394.053 183.817 395.92 195.284 395.92C214.751 395.92 229.284 380.853 229.284 360.72C229.284 350.053 227.284 345.253 217.284 332.187C205.817 317.52 203.684 310.72 202.884 285.92C201.951 261.787 203.684 249.387 209.284 238.32L213.417 230.187L222.084 231.12C233.284 232.32 240.617 235.12 258.084 245.253C285.684 261.253 290.884 266.453 299.151 286.587C305.151 300.853 309.684 306.587 318.751 311.12C331.684 317.653 347.684 315.387 358.484 305.653C367.284 297.787 371.017 288.72 370.217 277.253C369.417 267.253 366.484 260.587 358.617 251.787C351.951 244.187 347.017 234.587 345.017 225.387C344.217 221.12 343.817 208.72 344.084 193.52C344.484 169.653 344.617 168.32 348.084 160.853C350.084 156.453 354.751 149.253 358.217 144.853C368.484 131.92 369.817 128.72 369.817 116.587C369.817 104.853 368.351 100.987 360.751 92.4532C352.084 82.4532 335.151 78.4532 322.084 83.2532Z" fill="#114378"/>
<path d="M241.151 97.1196C226.884 100.186 218.484 110.72 218.484 125.52C218.618 142.053 229.818 153.253 246.484 153.253C263.151 153.253 274.884 141.653 274.884 125.253C274.884 107.12 258.618 93.5196 241.151 97.1196Z" fill="#114378"/>
<path d="M62.7508 159.92C45.4175 170.586 52.8841 197.253 73.2841 197.253C92.8841 197.253 100.351 171.653 83.9508 160.453C77.9508 156.453 69.0175 156.186 62.7508 159.92Z" fill="#114378"/>
<path d="M267.684 168.586C258.084 174.853 256.084 188.586 263.417 197.253C272.617 208.32 287.684 207.653 295.55 195.92C299.817 189.52 299.284 177.653 294.35 172.453C287.017 164.586 276.217 162.986 267.684 168.586Z" fill="#114378"/>
<path d="M29.1507 198.586C16.484 201.386 6.88404 209.52 2.48404 220.986C-2.44929 234.053 -0.049293 246.72 9.81737 258.586C24.484 276.053 26.484 282.72 26.484 314.853C26.6174 345.786 24.884 352.053 11.8174 368.586C2.08404 380.853 0.617373 384.453 0.617373 395.92C0.48404 404.586 1.01737 406.853 4.35071 412.986C11.8174 426.32 24.3507 432.853 39.5507 431.386C72.2174 428.186 72.484 428.186 99.8174 443.52C127.951 459.386 131.684 463.253 141.151 485.253C147.017 498.986 150.751 503.653 159.817 508.986C167.951 513.786 184.217 514.186 192.484 509.653C204.751 503.12 211.817 491.386 211.817 477.253C211.817 462.986 205.151 452.053 192.617 445.653C186.617 442.453 184.617 442.053 175.151 442.453C144.084 443.786 138.217 443.386 129.951 439.52C115.684 432.853 91.284 417.653 85.4174 411.786C79.284 405.653 75.0174 398.186 70.3507 385.92C68.884 381.92 63.8174 373.786 59.0174 367.786C46.2174 351.653 44.884 346.053 45.4174 311.653C45.8174 285.52 45.9507 284.32 49.4174 276.986C51.4174 272.72 55.8174 265.786 59.1507 261.653C68.884 249.786 71.0174 244.72 71.0174 233.92C70.884 222.986 68.7507 217.12 61.9507 209.52C54.2174 201.12 39.684 196.186 29.1507 198.586Z" fill="#114378"/>
<path d="M259.951 318.187C247.951 324.453 245.151 340.853 254.351 350.053C258.751 354.453 262.484 355.92 269.551 355.92C284.751 355.92 294.351 337.387 285.551 325.387C279.151 316.853 268.218 313.787 259.951 318.187Z" fill="#114378"/>
<path d="M104.084 338.586C90.7508 346.72 91.4174 366.72 105.151 373.52C118.084 380.053 132.484 372.053 133.951 357.52C135.551 341.786 117.684 330.32 104.084 338.586Z" fill="#114378"/>
<path d="M327.684 362.453C321.951 363.653 312.351 369.12 308.218 373.52C302.884 379.253 299.284 389.253 299.284 398.587C299.284 408.453 301.018 412.587 310.351 424.587C324.618 442.853 325.684 446.72 325.818 479.92C325.951 494.187 325.551 506.853 325.018 507.92C324.484 508.987 322.484 513.253 320.751 517.253C319.018 521.253 314.351 528.453 310.618 533.253C301.418 544.453 299.418 549.387 299.418 559.92C299.418 574.853 306.751 586.32 320.484 592.72C344.618 604.053 372.618 584.053 370.084 557.253C369.284 548.32 367.151 543.787 358.084 531.92C354.351 527.12 349.818 519.92 347.951 515.92C344.484 508.72 344.484 508.053 344.484 479.253C344.484 445.387 345.418 441.253 356.484 427.92C367.951 414.187 369.818 409.92 369.818 397.92C369.818 385.387 367.151 379.253 358.484 371.387C349.818 363.52 338.618 360.32 327.684 362.453Z" fill="#114378"/>
<path d="M243.951 437.52C235.417 442.053 230.084 450.186 229.417 459.786C228.484 472.986 232.484 481.12 243.417 487.52C254.084 493.786 269.817 491.386 277.951 482.32C289.951 469.253 287.951 449.52 273.417 439.386C265.417 433.786 252.484 432.986 243.951 437.52Z" fill="#114378"/>
<path d="M75.2842 493.253C62.0842 498.453 53.1509 511.386 53.1509 525.386C53.1509 542.72 63.0175 555.92 79.4175 560.72C85.5509 562.453 87.8175 562.453 100.084 560.72C111.951 558.986 115.018 558.853 122.484 560.453C134.618 563.12 137.018 564.186 156.218 575.653C181.684 590.853 187.951 597.786 195.284 618.453C200.884 633.92 213.151 642.853 229.018 642.853C239.418 642.72 245.818 640.32 253.284 633.653C272.218 616.586 267.551 586.453 244.351 575.12C236.484 571.253 238.484 571.386 207.151 574.053C199.284 574.72 196.351 574.32 188.351 571.653C176.618 567.52 145.551 549.253 138.351 542.186C131.151 535.12 129.818 532.853 124.084 518.72C118.484 505.253 114.751 500.453 105.818 495.12C97.4175 490.32 84.6175 489.386 75.2842 493.253Z" fill="#114378"/>
<path d="M248.884 514.32C234.484 520.986 233.284 539.92 246.618 548.986C250.351 551.653 252.484 552.053 258.484 551.653C270.618 550.853 277.151 543.786 277.151 531.52C277.151 524.32 273.018 517.52 266.484 514.32C260.618 511.386 255.151 511.386 248.884 514.32Z" fill="#114378"/>
<path d="M533.86 639.867C543.905 634.933 548.862 629.067 554.341 615.333C562.82 594.533 567.908 589.2 594.259 573.867C618.915 559.333 624.394 558.133 652.05 560.933C661.704 561.867 664.443 561.6 669.531 559.6C683.098 554.267 692.229 540.933 692.229 526.267C692.229 516.533 688.707 508.133 680.097 497.467C676.706 493.467 672.401 486.533 670.444 482.133C667.183 474.8 666.922 472.8 666.4 450.533C665.617 416.4 667.574 408.4 680.619 391.467C689.099 380.667 692.229 373.333 692.229 364.4C692.229 352.933 689.881 347.067 681.793 338.933C673.705 330.667 668.096 328.267 656.485 328.267C637.439 328.267 622.959 343.467 622.959 363.333C622.959 374.267 624.785 378.533 635.222 392.667C646.18 407.333 647.876 412.933 648.789 436.933C650.093 469.6 646.962 482.533 634.047 498.667C630.656 502.8 626.742 508.933 625.438 512.267C617.219 531.867 613.697 537.733 606.261 544C597.912 551.067 571.952 566.8 562.168 570.8C552.906 574.4 544.165 575.067 531.512 573.067C517.944 571.067 512.074 571.467 504.899 574.933C493.68 580.533 486.244 591.467 485.201 604.133C483.896 618.267 490.027 630.4 502.16 638.133C511.03 643.733 524.467 644.4 533.86 639.867Z" fill="#2493EA"/>
<path d="M457.415 612C464.72 608.267 469.938 598.8 468.634 591.867C465.894 577.333 451.805 570.267 438.89 577.067C426.367 583.733 426.628 604.933 439.151 611.6C445.804 615.067 451.153 615.2 457.415 612Z" fill="#2493EA"/>
<path d="M455.196 559.6C468.763 554.533 477.504 541.066 477.504 525.733C477.504 515.466 475.808 511.866 465.763 498.266C453.892 482.266 451.022 471.733 450.891 444.533C450.891 425.466 452.979 413.2 457.675 404C461.589 396.533 461.849 396.266 467.198 396.266C475.938 396.266 485.722 399.866 502.42 409.333C532.294 426 538.556 432.533 547.166 456C550.949 466 555.906 471.733 564.777 476.266C578.474 483.2 593.868 481.066 604.565 470.533C612.262 462.933 614.479 457.2 614.61 443.6C614.61 432.933 612.783 428.266 604.695 418.266C591.65 402.133 589.171 393.733 589.171 364C589.171 334 591.911 324 603.652 310.133C619.437 291.466 619.176 269.866 602.869 255.2C595.694 248.8 590.476 246.933 579.257 246.933C560.211 246.933 545.992 262 545.992 282.133C545.992 292.8 547.948 297.6 557.732 310.666C568.951 325.333 571.039 332.133 571.821 356.933C572.734 381.066 571.039 393.466 565.56 404.533L561.515 412.666L553.036 411.733C542.078 410.533 534.903 407.733 517.814 397.6C490.81 381.6 485.722 376.4 477.634 356.266C471.764 342 467.328 336.266 458.458 331.733C445.804 325.2 430.149 327.466 419.583 337.2C410.973 345.066 407.32 354.133 408.103 365.6C408.886 375.6 411.756 382.266 419.452 391.066C425.975 398.666 430.802 408.266 432.758 417.466C433.541 421.733 433.933 434.133 433.672 449.333C433.28 473.2 433.15 474.533 429.758 482C427.801 486.4 423.235 493.6 419.844 498C409.799 510.933 408.494 514.133 408.494 526.266C408.494 538 409.929 541.866 417.365 550.4C425.844 560.4 442.412 564.4 455.196 559.6Z" fill="#2493EA"/>
<path d="M534.382 545.733C548.341 542.667 556.559 532.133 556.559 517.333C556.429 500.8 545.471 489.6 529.164 489.6C512.857 489.6 501.378 501.2 501.378 517.6C501.378 535.733 517.293 549.333 534.382 545.733Z" fill="#2493EA"/>
<path d="M708.928 482.933C725.887 472.267 718.581 445.6 698.622 445.6C679.445 445.6 672.14 471.2 688.186 482.4C694.056 486.4 702.797 486.667 708.928 482.933Z" fill="#2493EA"/>
<path d="M508.421 474.267C517.814 468 519.771 454.267 512.596 445.6C503.594 434.533 488.853 435.2 481.156 446.933C476.982 453.333 477.504 465.2 482.331 470.4C489.505 478.267 500.072 479.867 508.421 474.267Z" fill="#2493EA"/>
<path d="M741.802 444.267C754.195 441.467 763.587 433.333 767.892 421.867C772.719 408.8 770.371 396.133 760.717 384.267C746.368 366.8 744.411 360.133 744.411 328C744.28 297.067 745.976 290.8 758.761 274.267C768.284 262 769.719 258.4 769.719 246.933C769.849 238.267 769.327 236 766.066 229.867C758.761 216.533 746.498 210 731.626 211.467C699.666 214.667 699.405 214.667 672.662 199.333C645.136 183.467 641.484 179.6 632.221 157.6C626.481 143.867 622.829 139.2 613.958 133.867C606 129.067 590.085 128.667 581.997 133.2C569.995 139.733 563.081 151.467 563.081 165.6C563.081 179.867 569.604 190.8 581.867 197.2C587.737 200.4 589.694 200.8 598.956 200.4C629.351 199.067 635.091 199.467 643.179 203.333C657.138 210 681.011 225.2 686.751 231.067C692.752 237.2 696.926 244.667 701.492 256.933C702.927 260.933 707.884 269.067 712.58 275.067C725.104 291.2 726.408 296.8 725.887 331.2C725.495 357.333 725.365 358.533 721.973 365.867C720.016 370.133 715.711 377.067 712.45 381.2C702.927 393.067 700.84 398.133 700.84 408.933C700.97 419.867 703.057 425.733 709.71 433.333C717.277 441.733 731.496 446.667 741.802 444.267Z" fill="#2493EA"/>
<path d="M515.988 324.666C527.729 318.4 530.468 302 521.467 292.8C517.162 288.4 513.51 286.933 506.596 286.933C491.724 286.933 482.331 305.466 490.941 317.466C497.203 326 507.9 329.066 515.988 324.666Z" fill="#2493EA"/>
<path d="M668.487 304.267C681.532 296.134 680.88 276.134 667.444 269.334C654.79 262.8 640.701 270.8 639.266 285.334C637.7 301.067 655.181 312.534 668.487 304.267Z" fill="#2493EA"/>
<path d="M449.717 280.4C455.327 279.2 464.72 273.733 468.764 269.333C473.982 263.6 477.504 253.6 477.504 244.266C477.504 234.4 475.808 230.266 466.676 218.266C452.718 200 451.674 196.133 451.544 162.933C451.413 148.666 451.805 136 452.326 134.933C452.848 133.866 454.805 129.6 456.501 125.6C458.197 121.6 462.763 114.4 466.415 109.6C475.417 98.3998 477.373 93.4665 477.373 82.9331C477.373 67.9998 470.199 56.5331 456.762 50.1331C433.15 38.7998 405.755 58.7998 408.233 85.5998C409.016 94.5331 411.103 99.0665 419.974 110.933C423.627 115.733 428.062 122.933 429.889 126.933C433.28 134.133 433.28 134.8 433.28 163.6C433.28 197.466 432.367 201.6 421.54 214.933C410.321 228.666 408.494 232.933 408.494 244.933C408.494 257.466 411.103 263.6 419.583 271.466C428.062 279.333 439.02 282.533 449.717 280.4Z" fill="#2493EA"/>
<path d="M531.642 205.333C539.991 200.8 545.209 192.667 545.861 183.067C546.774 169.867 542.861 161.733 532.164 155.333C521.728 149.067 506.334 151.467 498.376 160.533C486.636 173.6 488.592 193.333 502.812 203.467C510.639 209.067 523.293 209.867 531.642 205.333Z" fill="#2493EA"/>
<path d="M696.665 149.6C709.58 144.4 718.32 131.467 718.32 117.467C718.32 100.133 708.667 86.9333 692.621 82.1333C686.62 80.4 684.403 80.4 672.401 82.1333C660.791 83.8667 657.79 84 650.485 82.4C638.614 79.7333 636.265 78.6667 617.48 67.2C592.564 52 586.432 45.0667 579.258 24.4C573.779 8.93333 561.777 0 546.253 0C536.078 0.133333 529.816 2.53333 522.511 9.2C503.986 26.2667 508.552 56.4 531.251 67.7333C538.948 71.6 536.991 71.4667 567.647 68.8C575.344 68.1333 578.214 68.5333 586.041 71.2C597.521 75.3333 627.916 93.6 634.961 100.667C642.005 107.733 643.31 110 648.919 124.133C654.398 137.6 658.051 142.4 666.791 147.733C675.01 152.533 687.533 153.467 696.665 149.6Z" fill="#2493EA"/>
<path d="M526.815 128.533C540.904 121.867 542.078 102.933 529.033 93.8666C525.38 91.2 523.293 90.8 517.423 91.2C505.551 92 499.159 99.0666 499.159 111.333C499.159 118.533 503.203 125.333 509.595 128.533C515.335 131.467 520.684 131.467 526.815 128.533Z" fill="#2493EA"/>
</svg>
